<svg xmlns="http://www.w3.org/2000/svg" viewBox="0 0 128 128" role="img" aria-labelledby="title">
  <title>S2F Engenharia</title>
  <rect width="128" height="128" rx="32" fill="#07101b" />
  <path d="M26 40c0-8.8 7.2-16 16-16h14v16H44a4 4 0 0 0-4 4v8c0 2.2 1.8 4 4 4h18c8.8 0 16 7.2 16 16v12c0 8.8-7.2 16-16 16H28V84h30a4 4 0 0 0 4-4v-8c0-2.2-1.8-4-4-4H42c-8.8 0-16-7.2-16-16V40Z" fill="#f4f7fb" />
  <path d="M72 24h34v16H88v16h16v16H88v32H72V24Z" fill="#15a19a" />
  <path d="M72 56h22v16H72V56Z" fill="#caa866" />
</svg>
